<?xml version="1.0" encoding="UTF-8"?>
<svg width="512" height="512" viewBox="0 0 512 512" fill="none" xmlns="http://www.w3.org/2000/svg">
  <rect width="512" height="512" rx="150" fill="#1A73E8"/>
  <path d="M339.5 170.5H172.5C157.312 170.5 145 182.812 145 198V314C145 329.188 157.312 341.5 172.5 341.5H339.5C354.688 341.5 367 329.188 367 314V198C367 182.812 354.688 170.5 339.5 170.5Z" stroke="white" stroke-width="15" stroke-linecap="round" stroke-linejoin="round"/>
  <path d="M256 298C276.987 298 294 280.987 294 260C294 239.013 276.987 222 256 222C235.013 222 218 239.013 218 260C218 280.987 235.013 298 256 298Z" stroke="white" stroke-width="15" stroke-miterlimit="10"/>
  <path d="M326.5 207.5C332.023 207.5 336.5 203.023 336.5 197.5C336.5 191.977 332.023 187.5 326.5 187.5C320.977 187.5 316.5 191.977 316.5 197.5C316.5 203.023 320.977 207.5 326.5 207.5Z" fill="white"/>
</svg>
